<?xml version="1.0" encoding="utf-8"?>
<!-- Generator: Adobe Illustrator 22.0.1, SVG Export Plug-In . SVG Version: 6.00 Build 0)  -->
<svg version="1.1" id="Layer_1" xmlns="http://www.w3.org/2000/svg" xmlns:xlink="http://www.w3.org/1999/xlink" x="0px" y="0px"
	 viewBox="0 0 347.4 97.8" style="enable-background:new 0 0 347.4 97.8;" xml:space="preserve">
<style type="text/css">
	.st0{fill:#007978;}
	.st1{fill:#E34F2E;}
</style>
<g>
	<path class="st0" d="M224.5,91c-0.6,0.6-2.2,2.2-5.7,2.2s-6.6-2.3-6.6-6.6s3.1-6.6,6.7-6.6c3.4,0,4.8,1.8,5.3,2.2l-2,1.7
		c-0.5-0.6-1.5-1.5-3.3-1.5c-2.1,0-3.6,1.5-3.6,4.1s1.6,4.1,3.7,4.1c2.1,0,2.7-0.8,2.7-0.8V88H219v-2.3h5.6L224.5,91L224.5,91z"/>
	<path class="st0" d="M241.3,93h-3.5l-2.7-4.9h-0.9V93h-3V80.2h4.6c1.4,0,2.5,0.3,3.4,0.9s1.4,1.6,1.4,2.9c0,2.4-1.6,3.4-2.5,3.7
		L241.3,93z M236.9,82.9c-0.4-0.3-0.9-0.3-1.5-0.3h-1.2v3.3h1.2c0.7,0,1.2-0.1,1.5-0.4c0.4-0.3,0.6-0.6,0.6-1.3
		C237.6,83.5,237.3,83.1,236.9,82.9z"/>
	<path class="st0" d="M253.1,93.2c-3.8,0-6.8-2.5-6.8-6.6s3-6.6,6.8-6.6c3.8,0,6.8,2.5,6.8,6.6C259.8,90.8,256.9,93.2,253.1,93.2z
		 M253.1,82.6c-2.1,0-3.7,1.5-3.7,4s1.6,4,3.7,4c2.1,0,3.7-1.6,3.7-4C256.8,84.1,255.2,82.6,253.1,82.6z"/>
	<path class="st0" d="M276.7,87.7c0,1.8-0.3,3-1.2,4c-0.9,1-2.3,1.5-4.1,1.5c-1.9,0-3.2-0.6-4.1-1.5c-0.9-1-1.2-2.2-1.2-4v-7.4h3
		v7.4c0,0.9,0.1,1.6,0.5,2.1s1,0.8,1.8,0.8s1.4-0.3,1.8-0.8s0.5-1.2,0.5-2.1v-7.4h3L276.7,87.7L276.7,87.7z"/>
	<path class="st0" d="M291.5,87.3c-0.9,0.7-2,1-3.3,1h-1.6V93h-3V80.2h4.6c1.3,0,2.5,0.3,3.3,1c0.9,0.7,1.3,1.7,1.3,3.1
		S292.3,86.6,291.5,87.3z M289.2,82.9c-0.4-0.3-0.8-0.4-1.4-0.4h-1.2V86h1.2c0.6,0,1.1-0.1,1.4-0.4c0.4-0.3,0.6-0.7,0.6-1.4
		S289.5,83.1,289.2,82.9z"/>
</g>
<g>
	<path class="st0" d="M210,39.7l-9.2,31.8h-7.5l-6-21.8l-6,21.8h-7.5l-9.2-31.8h7.8l5.5,21.4l5.7-21.4h7.5l5.8,21.4l5.5-21.4
		C202.4,39.7,210,39.7,210,39.7z"/>
	<path class="st0" d="M246.3,71.5h-8.1l-2.3-6.4h-11.3l-2.3,6.4h-7.7l12-31.9h7.7L246.3,71.5z M234.2,59.3l-4-11.4l-4,11.4
		C226.2,59.3,234.2,59.3,234.2,59.3z"/>
	<path class="st0" d="M272.7,69.4c-2.3,1.8-5.2,2.6-8.6,2.6c-4.6,0-8.7-2.4-11.3-4.8l3.7-5.4c2.3,2.4,5.9,4,8.3,4s4.2-1.2,4.2-3.3
		c0-2.2-2.4-3-3.7-3.5c-1.4-0.5-3.8-1.3-4.8-1.8c-0.8-0.4-2.4-1-3.8-2.3s-2.5-3.1-2.5-6.1s1.5-5.4,3.3-7c1.8-1.5,4.7-2.5,8.4-2.5
		c3.7,0,7.9,1.8,10.1,3.9l-3.2,5.2c-1.8-1.8-4.7-3.2-7.1-3.2s-4.1,0.9-4.1,2.9c0,1.9,1.8,2.7,3.2,3.2c1.4,0.6,3.7,1.4,4.7,1.8
		c0.9,0.3,3,1.2,4.4,2.6c1.3,1.3,2.5,3.3,2.5,6.1C276.4,64.9,275,67.6,272.7,69.4z"/>
	<path class="st0" d="M308,45.6h-8.2v25.9h-7.5V45.6h-8.2v-5.9H308V45.6z"/>
	<path class="st0" d="M339,71.5h-21V39.7h20.6v5.9h-13.2v6.5h12.4V58h-12.4v7.4H339V71.5z"/>
</g>
<g>
	<path class="st1" d="M206.4,88H164c-0.3,0-0.6-0.3-0.6-0.6s0.3-0.6,0.6-0.6h42.4c0.3,0,0.6,0.3,0.6,0.6S206.7,88,206.4,88z"/>
</g>
<g>
	<path class="st1" d="M338.4,88H300c-0.3,0-0.6-0.3-0.6-0.6s0.3-0.6,0.6-0.6h38.4c0.3,0,0.6,0.3,0.6,0.6S338.7,88,338.4,88z"/>
</g>
<g>
	<path class="st1" d="M181.6,32.2h-4.7l-8.5-13.1c0,0,0.1,2.3,0.1,4.4v8.7h-4.4V12.9h4.8l8.3,13c0,0-0.1-2.2-0.1-4.2v-8.8h4.4
		L181.6,32.2L181.6,32.2z"/>
	<path class="st1" d="M230.9,32.2h-5.3l-4.1-7.4h-1.4v7.4h-4.5V12.9h7c2.2,0,3.8,0.4,5.1,1.4s2.1,2.5,2.1,4.4c0,3.7-2.4,5.1-3.8,5.5
		L230.9,32.2z M224.2,16.9c-0.6-0.4-1.3-0.5-2.3-0.5h-1.8v5h1.8c1,0,1.8-0.1,2.3-0.5c0.6-0.4,1-1,1-2
		C225.2,17.8,224.8,17.3,224.2,16.9z"/>
	<path class="st1" d="M249.5,16.4h-5v15.8H240V16.4h-5v-3.6h14.5V16.4z"/>
	<path class="st1" d="M272.4,32.2h-4.5v-8.1h-7.8v8.1h-4.5V12.9h4.5v7.5h7.8v-7.5h4.5V32.2z"/>
	<path class="st1" d="M292.9,32.2h-12.8V12.9h12.5v3.6h-8v4h7.6V24h-7.6v4.5h8.3V32.2z"/>
	<path class="st1" d="M315.2,32.2H310l-4.1-7.4h-1.4v7.4H300V12.9h7c2.2,0,3.8,0.4,5.1,1.4c1.3,1,2.1,2.5,2.1,4.4
		c0,3.7-2.4,5.1-3.8,5.5L315.2,32.2z M308.6,16.9c-0.6-0.4-1.3-0.5-2.3-0.5h-1.8v5h1.8c1,0,1.8-0.1,2.3-0.5c0.6-0.4,1-1,1-2
		C309.5,17.8,309.2,17.3,308.6,16.9z"/>
	<path class="st1" d="M338.4,32.2h-4.7l-8.5-13.1c0,0,0.1,2.3,0.1,4.4v8.7h-4.4V12.9h4.8l8.3,13c0,0-0.1-2.2-0.1-4.2v-8.8h4.4v19.3
		H338.4z"/>
</g>
<path class="st1" d="M198.5,13c5.1,0,9.3,4.2,9.3,9.3s-4.2,9.3-9.3,9.3s-9.3-4.2-9.3-9.3S193.4,13,198.5,13 M198.5,10.8
	c-6.4,0-11.6,5.2-11.6,11.6S192.1,34,198.5,34S210,28.7,210,22.3S204.9,10.8,198.5,10.8L198.5,10.8z"/>
<path class="st1" d="M204.2,26.8l-5.5-10.6l0,0l-0.1-0.1c0,0-0.1,0-0.1-0.1l0,0h-0.1h-0.1l0,0c0,0-0.1,0-0.1,0.1c0,0-0.1,0-0.1,0.1
	l0,0l-5.5,10.6c-0.1,0.1,0,0.3,0.1,0.4s0.2,0.1,0.2,0.1c0.1,0,0.1,0,0.2,0l5.3-2.9l5.3,2.9c0.1,0,0.1,0,0.2,0c0.1,0,0.2,0,0.2-0.1
	C204.3,27.1,204.3,26.9,204.2,26.8z M198.8,23.7v-6l4.3,8.4L198.8,23.7z"/>
<g>
	<path class="st1" d="M123.2,12.5l13.9,23.4l-13.9,25.4l8.1,4.4l-30.1,10.9L94,45.4l8.6,4.7L123.2,12.5z"/>
	<path class="st1" d="M5.9,36l13.9-23.4h47.1V3.3l24,21.2L67,45.8V36H5.9z"/>
	<path class="st1" d="M61.2,87.8H34.3l-9.4-17.1l-8,4.4l7-31.3L54,54.6l-8.6,4.7L61.2,87.8z"/>
	<path class="st0" d="M7.2,38.2c2.1,3.8,6.6,12.1,11.1,20.3l3.9-17.7l16.3,5.8l-4.6-8.5H7.2V38.2z"/>
	<g>
		<path class="st0" d="M107.8,36l12.8-23.4c-7.1,0-27.7,0-39.8,0l13.6,12L81.5,36H107.8z"/>
	</g>
	<g>
		<path class="st0" d="M99.3,80.2l-3.6-15.8H50.9l12.9,23.4c21.1,0,45.7,0,45.7,0l7.2-14L99.3,80.2z"/>
	</g>
</g>
</svg>
